HIERARCHY
ROOT joint_Root
{
	OFFSET 0.0 0.0 0.0
	CHANNELS 6 Xposition Yposition Zposition Zrotation Xrotation Yrotation 
	JOINT Hips
	{
		OFFSET -17.1583 93.1646 452.98
		CHANNELS 6 Xposition Yposition Zposition Zrotation Xrotation Yrotation 
		JOINT Spine
		{
			OFFSET 15.7357 0.0 0.0
			CHANNELS 6 Xposition Yposition Zposition Zrotation Xrotation Yrotation 
			JOINT Chest
			{
				OFFSET 8.98455 -0.406207 0.0
				CHANNELS 6 Xposition Yposition Zposition Zrotation Xrotation Yrotation 
				JOINT Neck
				{
					OFFSET 16.3773 0.0 0.0
					CHANNELS 6 Xposition Yposition Zposition Zrotation Xrotation Yrotation 
					JOINT Head
					{
						OFFSET 6.45672 0.0 0.0
						CHANNELS 6 Xposition Yposition Zposition Zrotation Xrotation Yrotation 
						End Site
						{
							OFFSET 0.0 0.0 0.0
						}
					}
				}
				JOINT Shoulder_L
				{
					OFFSET 12.9942 -0.242716 4.98039
					CHANNELS 6 Xposition Yposition Zposition Zrotation Xrotation Yrotation 
					JOINT UpperArm_L
					{
						OFFSET 5.34809 0.0 0.0
						CHANNELS 6 Xposition Yposition Zposition Zrotation Xrotation Yrotation 
						JOINT LowerArm_L
						{
							OFFSET 24.3286 1.87007e-05 0.0
							CHANNELS 6 Xposition Yposition Zposition Zrotation Xrotation Yrotation 
							JOINT Hand_L
							{
								OFFSET 22.2916 0.0 0.0
								CHANNELS 6 Xposition Yposition Zposition Zrotation Xrotation Yrotation 
								End Site
								{
									OFFSET 0.0 0.0 0.0
								}
							}
						}
					}
				}
				JOINT Shoulder_R
				{
					OFFSET 12.9945 -0.242716 -4.98039
					CHANNELS 6 Xposition Yposition Zposition Zrotation Xrotation Yrotation 
					JOINT UpperArm_R
					{
						OFFSET -5.34813 0.0 0.0
						CHANNELS 6 Xposition Yposition Zposition Zrotation Xrotation Yrotation 
						JOINT LowerArm_R
						{
							OFFSET -24.3289 0.000322201 0.0
							CHANNELS 6 Xposition Yposition Zposition Zrotation Xrotation Yrotation 
							JOINT Hand_R
							{
								OFFSET -22.2915 -0.000108084 0.0
								CHANNELS 6 Xposition Yposition Zposition Zrotation Xrotation Yrotation 
								End Site
								{
									OFFSET 0.0 0.0 0.0
								}
							}
						}
					}
				}
			}
		}
		JOINT UpperLeg_L
		{
			OFFSET -2.19248 -6.46944 0.0
			CHANNELS 6 Xposition Yposition Zposition Zrotation Xrotation Yrotation 
			JOINT LowerLeg_L
			{
				OFFSET 39.0811 0.0 -1.23785e-05
				CHANNELS 6 Xposition Yposition Zposition Zrotation Xrotation Yrotation 
				JOINT Foot_L
				{
					OFFSET 40.9854 0.0 -1.26872e-05
					CHANNELS 6 Xposition Yposition Zposition Zrotation Xrotation Yrotation 
					JOINT Toes_L
					{
						OFFSET 11.7543 0.0 0.0
						CHANNELS 6 Xposition Yposition Zposition Zrotation Xrotation Yrotation 
						End Site
						{
							OFFSET 0.0 0.0 0.0
						}
					}
				}
			}
		}
		JOINT UpperLeg_R
		{
			OFFSET -2.19251 6.46944 0.0
			CHANNELS 6 Xposition Yposition Zposition Zrotation Xrotation Yrotation 
			JOINT LowerLeg_R
			{
				OFFSET -39.0811 -0.00228153 -0.0401928
				CHANNELS 6 Xposition Yposition Zposition Zrotation Xrotation Yrotation 
				JOINT Foot_R
				{
					OFFSET -40.9854 0.0 0.0
					CHANNELS 6 Xposition Yposition Zposition Zrotation Xrotation Yrotation 
					JOINT Toes_R
					{
						OFFSET -11.7543 0.0 0.0
						CHANNELS 6 Xposition Yposition Zposition Zrotation Xrotation Yrotation 
						End Site
						{
							OFFSET 0.0 0.0 0.0
						}
					}
				}
			}
		}
	}
}
MOTION
Frames:	6
Frame Time:	0.0333333
0.000000 0.000000 0.000000 0.000000 0.000000 -0.000000 -2.201870 93.666800 -3.012250 88.284600 2.229150 -1.805110 15.735700 0.000005 -0.000001 98.499100 86.799100 -96.569300 8.984550 -0.406207 -0.000000 -1.444940 0.790907 3.868230 16.377300 -0.000001 -0.000001 -10.703900 1.211140 -2.134530 6.456720 -0.000001 -0.000000 -3.146690 -0.820040 -2.498930 12.994200 -0.242716 4.980390 -92.258800 8.675530 -75.345400 5.348090 -0.000007 -0.000001 -69.200200 21.016500 -14.984800 24.328600 0.000019 0.000005 2.315550 38.188700 -3.748390 22.291600 -0.000001 0.000005 -29.212500 5.177900 3.358160 12.994500 -0.242716 -4.980390 89.185300 4.274550 -79.198500 -5.348130 -0.000001 -0.000004 -67.552300 28.908800 -8.753820 -24.328900 0.000322 -0.000009 0.338598 2.012090 -9.626830 -22.291500 -0.000108 -0.000004 -17.592400 5.042490 6.439720 -2.192480 -6.469440 -0.000000 -172.311000 -6.660640 -3.625440 39.081100 -0.000007 -0.000012 -0.007675 0.041937 10.370300 40.985400 -0.000006 -0.000013 -5.069850 15.044400 -63.977900 11.754300 -0.000000 0.000003 -0.000383 0.173841 -9.525570 -2.192510 6.469440 -0.000001 178.839000 10.069800 177.887000 -39.081100 -0.002282 -0.040193 0.014539 -0.066576 9.548920 -40.985400 0.000008 0.000006 -6.343970 4.645940 -64.903800 -11.754300 -0.000006 -0.000006 -0.009718 0.269189 -5.637540
0.000000 0.000000 0.000000 0.000000 0.000000 -0.000000 -2.223730 93.640600 -2.612240 88.252200 3.019130 -1.447370 15.735700 0.000005 -0.000001 97.331200 87.138900 -95.393300 8.984550 -0.406207 -0.000000 -2.097210 0.563271 3.885520 16.377300 -0.000001 -0.000001 -10.287500 1.022130 -1.739020 6.456720 -0.000001 -0.000000 -4.199440 -0.504667 -2.892520 12.994200 -0.242716 4.980390 -91.919500 7.553640 -75.697200 5.348090 -0.000007 -0.000001 -66.550000 16.109400 -23.450500 24.328600 0.000019 0.000005 1.249150 50.770400 -1.611190 22.291600 -0.000001 0.000005 -39.791300 5.097450 5.156610 12.994500 -0.242716 -4.980390 89.356400 3.264400 -78.840100 -5.348130 -0.000001 -0.000004 -63.033400 28.886800 -16.263700 -24.328900 0.000322 -0.000009 1.575610 12.127100 -7.465880 -22.291500 -0.000108 -0.000004 -27.447200 4.969930 7.961310 -2.192480 -6.469440 -0.000000 -172.128000 -6.647140 -3.203600 39.081100 -0.000007 -0.000012 -0.010545 0.057344 10.419600 40.985400 -0.000006 -0.000013 -5.162400 15.845600 -63.897500 11.754300 -0.000000 0.000003 -0.000578 0.176839 -9.403780 -2.192510 6.469440 -0.000001 178.789000 11.347000 178.804000 -39.081100 -0.002282 -0.040193 0.010459 -0.044249 9.138630 -40.985400 0.000008 0.000006 -6.184020 5.041220 -64.756000 -11.754300 -0.000006 -0.000006 -0.009731 0.269284 -5.633630
0.000000 0.000000 0.000000 0.000000 0.000000 -0.000000 -2.240950 93.680100 -2.280930 88.257900 3.488670 -1.417620 15.735700 0.000005 -0.000001 96.259100 87.826600 -94.357000 8.984550 -0.406207 -0.000000 -3.447140 0.287635 3.813800 16.377300 -0.000001 -0.000001 -9.086830 1.038690 -1.545880 6.456720 -0.000001 -0.000000 -4.008180 -0.281798 -2.788110 12.994200 -0.242716 4.980390 -91.443100 5.676200 -75.710300 5.348090 -0.000007 -0.000001 -62.243900 12.856500 -32.528400 24.328600 0.000019 0.000005 3.084110 52.713600 -3.874870 22.291600 -0.000001 0.000005 -36.229600 5.165290 3.577570 12.994500 -0.242716 -4.980390 89.637600 1.757570 -78.345900 -5.348130 -0.000001 -0.000004 -58.334700 25.350600 -24.214900 -24.328900 0.000322 -0.000009 2.519980 18.526600 -7.888800 -22.291500 -0.000108 -0.000004 -29.486400 4.925760 8.858480 -2.192480 -6.469440 -0.000000 -171.907000 -7.389670 -2.684100 39.081100 -0.000007 -0.000012 -0.014601 0.086302 9.602200 40.985400 -0.000006 -0.000013 -6.346640 17.158500 -62.949700 11.754300 -0.000000 0.000003 -0.000975 0.182677 -9.166540 -2.192510 6.469440 -0.000001 178.627000 11.952100 179.699000 -39.081100 -0.002282 -0.040193 0.005871 -0.018114 7.948010 -40.985400 0.000008 0.000006 -7.259680 5.244180 -63.976500 -11.754300 -0.000006 -0.000006 -0.009936 0.270829 -5.570440
0.000000 0.000000 0.000000 0.000000 0.000000 -0.000000 -2.222270 93.713200 -1.956790 88.259900 3.590650 -1.370750 15.735700 0.000005 -0.000001 96.661200 88.525500 -94.825300 8.984550 -0.406207 -0.000000 -4.836630 0.139949 3.680690 16.377300 -0.000001 -0.000001 -7.598060 1.005820 -1.516930 6.456720 -0.000001 -0.000000 -3.116520 -0.213307 -2.249220 12.994200 -0.242716 4.980390 -90.970800 3.832650 -75.775100 5.348090 -0.000007 -0.000001 -57.718600 6.992880 -41.721200 24.328600 0.000019 0.000005 3.103980 40.117000 -4.815220 22.291600 -0.000001 0.000005 -21.708600 5.188310 3.045090 12.994500 -0.242716 -4.980390 89.874400 0.582987 -77.840300 -5.348130 -0.000001 -0.000004 -53.118000 19.167300 -32.311200 -24.328900 0.000322 -0.000009 2.295900 14.798200 -8.927110 -22.291500 -0.000108 -0.000004 -21.789300 4.996210 7.452520 -2.192480 -6.469440 -0.000000 -171.731000 -7.790970 -2.053770 39.081100 -0.000007 -0.000012 -0.014324 0.093155 8.741470 40.985400 -0.000006 -0.000013 -7.579760 17.810200 -61.966400 11.754300 -0.000000 0.000003 -0.001051 0.183754 -9.122790 -2.192510 6.469440 -0.000001 178.376000 12.389000 -179.373000 -39.081100 -0.002282 -0.040193 0.005366 -0.017397 6.628130 -40.985400 0.000008 0.000006 -8.659760 5.683710 -62.897700 -11.754300 -0.000006 -0.000006 -0.010349 0.273896 -5.444990
0.000000 0.000000 0.000000 0.000000 0.000000 -0.000000 -2.151040 93.763400 -1.592980 88.145200 3.287410 -1.349200 15.735700 0.000005 -0.000001 96.083300 89.073200 -94.200100 8.984550 -0.406207 -0.000000 -5.919570 -0.028579 3.769460 16.377300 -0.000001 -0.000001 -6.744080 1.118890 -1.512590 6.456720 -0.000001 -0.000000 -1.835360 -0.189959 -1.703910 12.994200 -0.242716 4.980390 -90.500400 1.914320 -75.344400 5.348090 -0.000007 -0.000001 -54.372000 -0.209637 -49.739200 24.328600 0.000019 0.000005 3.810660 26.685100 -8.441400 22.291600 -0.000001 0.000005 -5.105140 5.248930 1.463630 12.994500 -0.242716 -4.980390 90.157600 -0.715622 -77.582200 -5.348130 -0.000001 -0.000004 -48.748700 10.791300 -40.209300 -24.328900 0.000322 -0.000009 0.936536 5.084010 -10.481000 -22.291500 -0.000108 -0.000004 -10.740100 5.201300 2.776410 -2.192480 -6.469440 -0.000000 -171.477000 -8.001830 -1.110700 39.081100 -0.000007 -0.000012 -0.011360 0.087085 7.431390 40.985400 -0.000006 -0.000013 -8.839760 17.852700 -60.838300 11.754300 -0.000000 0.000003 -0.000893 0.181505 -9.214160 -2.192510 6.469440 -0.000001 178.322000 12.463300 -179.185000 -39.081100 -0.002282 -0.040193 0.005741 -0.020614 6.631030 -40.985400 0.000008 0.000006 -9.190240 6.134650 -62.407400 -11.754300 -0.000006 -0.000006 -0.010053 0.271704 -5.534660
0.000000 0.000000 0.000000 0.000000 0.000000 -0.000000 -2.040410 93.827500 -1.141450 87.952100 2.726940 -1.363240 15.735700 0.000005 -0.000001 95.290900 89.471800 -93.319600 8.984550 -0.406207 -0.000000 -6.708490 -0.151537 3.939850 16.377300 -0.000001 -0.000001 -6.535330 1.343320 -1.573100 6.456720 -0.000001 -0.000000 -0.735974 -0.248001 -0.855666 12.994200 -0.242716 4.980390 -90.055800 0.194712 -73.978300 5.348090 -0.000007 -0.000001 -51.911100 -7.550120 -58.013300 24.328600 0.000019 0.000005 4.252080 20.784200 -11.834700 22.291600 -0.000001 0.000005 9.474220 5.239390 1.689190 12.994500 -0.242716 -4.980390 90.516500 -2.262960 -77.140000 -5.348130 -0.000001 -0.000004 -45.940600 1.453160 -47.640700 -24.328900 0.000322 -0.000009 -0.532926 -2.173340 -13.744500 -22.291500 -0.000108 -0.000004 -0.874531 5.354540 -1.486400 -2.192480 -6.469440 -0.000000 -171.169000 -8.152550 0.233566 39.081100 -0.000007 -0.000012 -0.005856 0.060728 5.507460 40.985400 -0.000006 -0.000013 -10.400800 17.509600 -59.495800 11.754300 -0.000000 0.000003 -0.000851 0.180902 -9.238680 -2.192510 6.469440 -0.000001 178.335000 12.289700 -179.044000 -39.081100 -0.002282 -0.040193 0.005681 -0.019928 6.686230 -40.985400 0.000008 0.000006 -9.568550 6.540750 -61.881400 -11.754300 -0.000006 -0.000006 -0.009303 0.266024 -5.766940
